{"title":"Extraction.2015.WEBRip.480p.x264.AAC-VYTO [P2PDL]","uid":13106194,"size":321858820,"categoryP":"video","categoryS":"movies","magnet":"?xt=urn:btih:5b576eb58548c5af6566b6d7fbbc743ebc973a5e&amp;dn=Extraction.2015.WEBRip.480p.x264.AAC-VYTO+%5BP2PDL%5D&amp;tr=udp%3A%2F%2Ftracker.leechers-paradise.org%3A6969&amp;tr=udp%3A%2F%2Fzer0day.ch%3A1337&amp;tr=udp%3A%2F%2Fopen.demonii.com%3A1337&amp;tr=udp%3A%2F%2Ftracker.coppersurfer.tk%3A6969&amp;tr=udp%3A%2F%2Fexodus.desync.com%3A6969","seeders":0,"leechers":1,"uploader":"VYTOP2PDL","files":7,"time":1451294348,"description":"Extraction.2015.WEBRip.480p.x264.AAC-VYTO\r\n\r\n\r\nGenre: Thriller \nhttp://www.imdb.com/title/tt4382872/\r\n\r\n\r\nFormat                                   : MPEG-4\r\nFile size                                : 301 MiB\r\nDuration                                 : 1h 22mn\r\nOverall bit rate                         : 508 Kbps\r\n\r\nVideo\r\nFormat                                   : AVC\r\nBit rate                                 : 426 Kbps\r\nWidth                                    : 720 pixels\r\nHeight                                   : 304 pixels\r\nDisplay aspect ratio                     : 2.35:1\r\nFrame rate mode                          : Constant\r\nFrame rate                               : 23.976 fps\r\nBit depth                                : 8 bits\r\nStream size                              : 252 MiB (84%)\r\nWriting library                          : x264\r\n\r\nAudio\r\nFormat                                   : AAC\r\nBit rate mode                            : Variable\r\nBit rate                                 : 79.8 Kbps\r\nChannel(s)                               : 2 channels\r\nChannel positions                        : Front: L R\r\nSampling rate                            : 48.0 KHz\r\nStream size                              : 47.2 MiB (16%)\r\nLanguage                                 : English\r\n\r\nSubtitle                                 : Yes (English)\r\n\r\nScreen Shots: (Click to view)\r\n \nhttp://ititli.com/Eo \nhttp://ititli.com/EG \nhttp://ititli.com/EH \nhttp://ititli.com/EM \nhttp://ititli.com/EU \nhttp://ititli.com/Eh \nhttp://ititli.com/Es \nhttp://ititli.com/EY \nhttp://ititli.com/E4\r\n\r\n----------------------------------------------------------------------------------------------------\r\n\r\n\r\nEncoder Notes: Looking For Early Access To Anything You Can Provide WEBDL, DVDScr, DVDR, BluRay,\r\nDirect Audio, Music Releases and Seedboxes. If You Got anything to offer please contact us.\r\n\r\nSupport us by donating BC - 1FgwdzPsd1y25Gea8wP1qni35uGCtmkRCD\r\n\r\nSend some love!\r\nFind us and join us!","torrent":{"xt":"urn:btih:5b576eb58548c5af6566b6d7fbbc743ebc973a5e","amp;dn":"Extraction.2015.WEBRip.480p.x264.AAC-VYTO+%5BP2PDL%5D","amp;tr":["udp%3A%2F%2Ftracker.leechers-paradise.org%3A6969","udp%3A%2F%2Fzer0day.ch%3A1337","udp%3A%2F%2Fopen.demonii.com%3A1337","udp%3A%2F%2Ftracker.coppersurfer.tk%3A6969","udp%3A%2F%2Fexodus.desync.com%3A6969"],"infoHash":"5b576eb58548c5af6566b6d7fbbc743ebc973a5e","infoHashBuffer":{"type":"Buffer","data":[91,87,110,181,133,72,197,175,101,102,182,215,251,188,116,62,188,151,58,94]},"announce":[],"urlList":[]}}